<?xml version="1.0" encoding="UTF-8" standalone="no"?><!DOCTYPE svg PUBLIC "-//W3C//DTD SVG 1.1//EN" "http://www.w3.org/Graphics/SVG/1.1/DTD/svg11.dtd"><svg width="100%" height="100%" viewBox="0 0 925 257" version="1.1" xmlns="http://www.w3.org/2000/svg" xmlns:xlink="http://www.w3.org/1999/xlink" xml:space="preserve" style="fill-rule:evenodd;clip-rule:evenodd;stroke-linecap:round;stroke-linejoin:round;stroke-miterlimit:1.5;"><path d="M611.773,7.254l-182.783,0l-54.72,153.072l176.029,0l61.474,-153.072Z" style="fill:url(#_Linear1);"/><path d="M794.466,7.254l-169.495,0l-60.157,153.316l175.719,0l53.933,-153.316Z" style="fill:url(#_Linear2);"/><path d="M904.192,14.75l-97.95,-5.365l-51.093,151.591l166.39,0l-17.347,-146.226Z" style="fill:url(#_Linear3);"/><text x="517.833px" y="240.021px" style="font-family:'Audiowide-Regular', 'Audiowide';font-size:58.807px;fill:#1a1a1a;">INDUS<tspan x="726.674px " y="240.021px ">T</tspan>RIE<tspan x="878.545px " y="240.021px ">S</tspan></text><text x="31.098px" y="141.801px" style="font-family:'Audiowide-Regular', 'Audiowide';font-size:136.452px;fill:#1a1a1a;">HYPER<tspan x="578.774px 677.848px 780.321px " y="141.801px 141.801px 141.801px ">TEC</tspan></text><path d="M913.352,121.355l0,-69.294c0,-23.714 -19.253,-42.967 -42.968,-42.967l-818.323,0c-23.714,0 -42.967,19.253 -42.967,42.967l0,85.936c0,23.715 19.253,42.968 42.967,42.968l277.682,0" style="fill:none;stroke:#1a1a1a;stroke-width:18.19px;"/><path d="M547.589,172.247l-177.788,0l-7.504,17.894l177.789,0l7.503,-17.894Z" style="fill:#5b8ab5;"/><path d="M356.074,171.906l-177.747,0l-7.502,17.986l177.747,0l7.502,-17.986Z" style="fill:#1a1a1a;"/><path d="M737.736,172.247l-177.788,0l-7.505,17.894l177.788,0l7.505,-17.894Z" style="fill:#ef3228;"/><path d="M904.296,98.477l0,62.499l18.153,-0.008l0,-62.499l-18.153,0.008Z" style="fill:#1a1a1a;"/><path d="M922.957,172.21l-171.028,0l-7.505,17.969c0,0 134.797,0 170.135,0c4.638,0 8.398,-3.76 8.398,-8.399c0,-4.678 0,-9.57 0,-9.57Z" style="fill:#eea80b;"/><defs><linearGradient id="_Linear1" x1="0" y1="0" x2="1" y2="0" gradientUnits="userSpaceOnUse" gradientTransform="matrix(57.1481,-172.428,172.428,57.1481,458.502,171.986)"><stop offset="0" style="stop-color:#5b8ab5;stop-opacity:0.501961"/><stop offset="1" style="stop-color:#345573;stop-opacity:0"/></linearGradient><linearGradient id="_Linear2" x1="0" y1="0" x2="1" y2="0" gradientUnits="userSpaceOnUse" gradientTransform="matrix(57.2242,-160.536,160.536,57.2242,648.055,166.162)"><stop offset="0" style="stop-color:#ef3228;stop-opacity:0.501961"/><stop offset="1" style="stop-color:#a0130c;stop-opacity:0"/></linearGradient><linearGradient id="_Linear3" x1="0" y1="0" x2="1" y2="0" gradientUnits="userSpaceOnUse" gradientTransform="matrix(19.7267,-147.654,147.654,19.7267,834.427,162.476)"><stop offset="0" style="stop-color:#eea80b;stop-opacity:0.505882"/><stop offset="1" style="stop-color:#f8cc68;stop-opacity:0"/></linearGradient></defs></svg>